# xmcd
#
# Track frame offsets: 
#        150
#        27698
#        44106
#        71503
#
# Disc length: 1167 seconds
#
# Revision: 1
# Processed by: cddbd v1.5.2PL0 Copyright (c) Steve Scherf et al.
# Submitted via: ExactAudioCopy v1.1
#
DISCID=3a048d04
DTITLE=David Bowie - "Heroes" E.P.
DYEAR=2017
DGENRE=
TTITLE0="Heroes" - „Helden“ [German Album Version]
TTITLE1=„Helden“ [German Single Version]
TTITLE2="Heroes" - "Héros" [French Album Version]
TTITLE3="Héros" [French Single Version]
EXTD=
EXTT0=
EXTT1=
EXTT2=
EXTT3=
PLAYORDER=
